<svg xmlns="http://www.w3.org/2000/svg"
	 viewBox="0 0 512 512" style="enable-background:new 0 0 512 512;" xml:space="preserve">
<rect x="25.119" y="37.946" style="fill:#E6EAEA;" width="461.762" height="393.353"/>
<rect x="25.119" y="37.946" style="fill:#CDD4D5;" width="230.881" height="393.353"/>
<rect x="25.119" y="37.946" style="fill:#9BAAAB;" width="461.762" height="34.205"/>
<rect x="25.119" y="37.946" style="fill:#687F82;" width="230.881" height="34.205"/>
<g>
	<path style="fill:#0a66c2;" d="M471.917,474.054H40.084c-17.71,0-32.067-14.356-32.067-32.067v-36.342h495.967v36.342
		C503.983,459.698,489.627,474.054,471.917,474.054z"/>
	<rect x="213.244" y="405.645" style="fill:white;" width="85.511" height="34.205"/>
</g>
<path style="fill:#0a66c2;" d="M8.017,405.645v36.342c0,17.71,14.356,32.067,32.067,32.067h216.985v-68.409H8.017z"/>
<rect x="213.244" y="405.645" style="fill:#37AEE2;" width="43.825" height="34.205"/>
<g>
	<path style="fill:#FFFFFF;" d="M444.125,456.418h-94.063c-4.428,0-8.017-3.588-8.017-8.017s3.588-8.017,8.017-8.017h94.063
		c4.428,0,8.017,3.588,8.017,8.017S448.554,456.418,444.125,456.418z"/>
	<path style="fill:#FFFFFF;" d="M161.937,456.418H67.875c-4.428,0-8.017-3.588-8.017-8.017s3.588-8.017,8.017-8.017h94.063
		c4.428,0,8.017,3.588,8.017,8.017S166.366,456.418,161.937,456.418z"/>
</g>
<g>
	<path style="fill:#0a66c2;" d="M379.919,276.377l-33.045-8.855c-4.327,16.189-12.858,30.66-24.361,42.163l24.186,24.186
		C362.385,318.186,374.018,298.452,379.919,276.377z"/>
	<path style="fill:#0a66c2;" d="M189.488,176.661l-24.186-24.186c-15.686,15.686-27.32,35.419-33.22,57.495l33.045,8.855
		C169.454,202.634,177.985,188.164,189.488,176.661z"/>
	<path style="fill:#0a66c2;" d="M367.102,179.028l-29.628,17.106c8.388,14.507,12.588,30.772,12.587,47.04h34.205
		C384.267,220.989,378.54,198.81,367.102,179.028z"/>
	<path style="fill:#0a66c2;" d="M289.204,119.254l-8.855,33.045c16.189,4.327,30.66,12.858,42.163,24.361l24.186-24.186
		C331.013,136.788,311.279,125.156,289.204,119.254z"/>
	<path style="fill:#0a66c2;" d="M191.855,132.071l17.106,29.628c14.507-8.388,30.772-12.588,47.04-12.587v-34.205
		C233.816,114.906,211.637,120.633,191.855,132.071z"/>
</g>
<g>
	
</g>
<g>
	<path style="fill:#9BAAAB;" d="M346.699,341.889c-2.051,0-4.103-0.782-5.669-2.347l-24.186-24.186
		c-3.131-3.132-3.131-8.207,0-11.338c10.695-10.694,18.401-24.029,22.285-38.564c0.55-2.055,1.892-3.807,3.735-4.872
		c1.842-1.066,4.032-1.356,6.085-0.802l33.045,8.854c4.275,1.145,6.812,5.538,5.67,9.814c-6.158,23.034-18.363,44.159-35.296,61.094
		C350.801,341.105,348.75,341.889,346.699,341.889z M333.627,309.464l12.882,12.882c10.345-11.823,18.283-25.557,23.334-40.369
		l-17.605-4.717C348.072,289.019,341.755,299.948,333.627,309.464z"/>
	<path style="fill:#9BAAAB;" d="M165.126,226.841c-0.695,0-1.393-0.09-2.075-0.274l-33.045-8.854
		c-4.274-1.145-6.812-5.538-5.67-9.814c6.158-23.034,18.363-44.159,35.296-61.094c3.132-3.13,8.207-3.13,11.338,0l24.186,24.186
		c3.131,3.132,3.131,8.207,0,11.338c-10.695,10.694-18.401,24.029-22.285,38.564c-0.55,2.055-1.893,3.807-3.735,4.872
		C167.907,226.476,166.522,226.841,165.126,226.841z M142.156,204.369l17.605,4.717c4.167-11.759,10.484-22.688,18.612-32.204
		L165.49,164C155.146,175.823,147.207,189.559,142.156,204.369z"/>
	<path style="fill:#9BAAAB;" d="M384.267,251.19h-34.205c-4.428,0-8.017-3.588-8.017-8.017c0-15.123-3.981-30.001-11.512-43.027
		c-1.065-1.842-1.354-4.03-0.804-6.085c0.551-2.054,1.894-3.806,3.736-4.87l29.628-17.106c3.832-2.213,8.734-0.902,10.949,2.93
		c11.934,20.641,18.242,44.21,18.242,68.158C392.284,247.602,388.696,251.19,384.267,251.19z M357.764,235.157h18.219
		c-1.045-15.674-5.142-31-12.045-45.045l-15.785,9.113C353.521,210.485,356.783,222.683,357.764,235.157z"/>
	<path style="fill:#9BAAAB;" d="M322.513,184.677c-2.051,0-4.103-0.782-5.669-2.347c-10.694-10.695-24.029-18.401-38.564-22.285
		c-2.056-0.55-3.807-1.893-4.872-3.735c-1.064-1.842-1.353-4.031-0.802-6.085l8.854-33.045c1.145-4.275,5.543-6.808,9.814-5.67
		c23.034,6.158,44.159,18.363,61.094,35.296c3.131,3.132,3.131,8.207,0,11.338l-24.186,24.186
		C326.616,183.895,324.564,184.677,322.513,184.677z M290.087,146.934c11.759,4.167,22.688,10.484,32.204,18.612l12.882-12.882
		c-11.823-10.345-25.557-18.283-40.369-23.334L290.087,146.934z"/>
	<path style="fill:#9BAAAB;" d="M208.96,169.715c-0.694,0-1.391-0.09-2.073-0.273c-2.054-0.55-3.806-1.893-4.87-3.736
		l-17.106-29.628c-2.213-3.833-0.901-8.734,2.93-10.949c20.64-11.933,44.209-18.241,68.158-18.241c4.428,0,8.017,3.588,8.017,8.017
		v34.205c0,4.428-3.588,8.017-8.017,8.017c-15.123,0-30.001,3.981-43.027,11.512C211.742,169.35,210.357,169.715,208.96,169.715z
		 M202.938,135.235l9.113,15.785c11.26-5.367,23.457-8.629,35.931-9.61v-18.22C232.309,124.235,216.983,128.333,202.938,135.235z"/>
	<path style="fill:#9BAAAB;" d="M256,379.457c-4.428,0-8.017-3.588-8.017-8.017v-34.205c0-4.428,3.588-8.017,8.017-8.017
		c15.123,0,30.001-3.981,43.027-11.512c1.843-1.065,4.03-1.355,6.085-0.804c2.054,0.551,3.806,1.894,4.87,3.736l17.105,29.628
		c2.213,3.833,0.901,8.734-2.93,10.949C303.518,373.15,279.949,379.457,256,379.457z M264.017,344.937v18.219
		c15.674-1.045,31-5.142,45.045-12.045l-9.113-15.785C288.688,340.694,276.491,343.956,264.017,344.937z"/>
	<path style="fill:#9BAAAB;" d="M222.801,375.111c-0.686,0-1.382-0.089-2.075-0.274c-23.034-6.158-44.159-18.363-61.094-35.296
		c-3.131-3.132-3.131-8.207,0-11.339l24.186-24.186c3.132-3.13,8.207-3.13,11.338,0c10.693,10.693,24.029,18.4,38.564,22.286
		c2.055,0.549,3.808,1.892,4.872,3.734c1.064,1.842,1.353,4.031,0.802,6.085l-8.854,33.045
		C229.58,372.749,226.341,375.111,222.801,375.111z M176.828,333.683c11.823,10.345,25.557,18.283,40.369,23.334l4.717-17.605
		c-11.758-4.168-22.689-10.486-32.204-18.612L176.828,333.683z"/>
	<path style="fill:#9BAAAB;" d="M144.905,315.336c-2.77,0-5.461-1.436-6.948-4.005c-11.933-20.64-18.241-44.209-18.241-68.158
		c0-4.428,3.588-8.017,8.017-8.017h34.205c4.428,0,8.017,3.588,8.017,8.017c0,15.123,3.981,30.001,11.512,43.027
		c1.065,1.842,1.354,4.031,0.804,6.085s-1.893,3.806-3.736,4.87l-29.628,17.105C147.644,314.99,146.265,315.336,144.905,315.336z
		 M136.017,251.19c1.044,15.674,5.142,31,12.045,45.045l15.785-9.113c-5.367-11.26-8.629-23.457-9.61-35.931h-18.22V251.19z"/>
</g>
<path d="M503.983,397.628h-9.086V72.15V37.946c0-4.428-3.588-8.017-8.017-8.017H25.119c-4.428,0-8.017,3.588-8.017,8.017V72.15
	v325.478H8.017c-4.428,0-8.017,3.588-8.017,8.017v36.342c0,22.103,17.981,40.083,40.084,40.083h431.833
	c22.103,0,40.083-17.981,40.083-40.083v-36.342C512,401.217,508.412,397.628,503.983,397.628z M221.261,413.662h69.478v18.171
	h-69.478V413.662z M298.756,397.628h-85.511H33.136V80.167h445.729v317.461H298.756z M478.864,45.962v18.171H33.136V45.962H478.864z
	 M495.967,441.987c0,13.261-10.789,24.05-24.05,24.05H40.084c-13.261,0-24.05-10.789-24.05-24.05v-28.326h9.086h180.109v26.188
	c0,4.428,3.588,8.017,8.017,8.017h85.511c4.428,0,8.017-3.588,8.017-8.017v-26.188h180.109h9.086V441.987z"/>
</svg>